<svg width="32" height="28" viewBox="0 0 32 28" fill="none" xmlns="http://www.w3.org/2000/svg">
<path d="M2.76642 24.3787C4.66642 26.6666 8.20042 26.6666 15.2716 26.6666H16.4116C23.4827 26.6666 27.0183 26.6666 28.9183 24.3787M2.76642 24.3787C0.866417 22.0892 1.51875 18.6153 2.82183 11.6645C3.74808 6.7245 4.21042 4.25292 5.9695 2.79309M28.9183 24.3787C30.8183 22.0892 30.166 18.6153 28.8629 11.6645C27.9367 6.7245 27.4728 4.25292 25.7137 2.79309M25.7137 2.79309C23.9562 1.33325 21.4402 1.33325 16.4132 1.33325H15.27C10.2429 1.33325 7.72858 1.33325 5.9695 2.79309" stroke="black" stroke-width="2"/>
<path d="M11.3608 7.6665C11.688 8.5936 12.2946 9.3964 13.0971 9.96425C13.8997 10.5321 14.8586 10.8371 15.8417 10.8371C16.8248 10.8371 17.7837 10.5321 18.5862 9.96425C19.3888 9.3964 19.9954 8.5936 20.3225 7.6665" stroke="black" stroke-width="2" stroke-linecap="round"/>
</svg>
